<svg id="Layer_1" data-name="Layer 1" xmlns="http://www.w3.org/2000/svg" viewBox="0 0 500 200">
  <path d="M79.7,30.78l.85.35c-6.79,1.33-10.79,5.75-12.69,12.14a35.11,35.11,0,0,0-1.43,8.82c-.2,6.61-.06,13.23-.06,20h1.27c7.59,0,15.22-.45,22.77.13,18.82,1.44,33.14,10.13,40.91,27.8,6.58,14.94,2.84,32.64-8.74,44.3a47.82,47.82,0,0,1-34.06,14.5c-5.45.12-10.9.07-16.35.09-.27,0-.53,0-.91,0v-83H66.38v61.36H42.85V75.87H29.94V72.13H42.83V70.7c0-5.14,0-10.28,0-15.41a9.8,9.8,0,0,1,.36-2.75c3.33-11.4,11-18.14,22.44-20.8,1.7-.39,3.45-.64,5.17-1Zm7.78,55.81v57.65a4.06,4.06,0,0,0,.42,0l1.4-.08c8.93-.62,16.51-4.05,22.49-10.8A26.65,26.65,0,0,0,115,102.15C108.9,91.75,99.34,87.2,87.48,86.59Z"/>
  <path d="M470.06,116.51H456.11V86.45h4.09v25.63h9.86Z"/>
  <path d="M98.62,43.33A12.48,12.48,0,1,1,86.15,30.78,12.44,12.44,0,0,1,98.62,43.33Z" fill="#fbd134"/>
  <path d="M288.08,106.92c1.15-2.53,2.23-4.84,3.25-7.17,1.24-2.82,2.43-5.66,3.66-8.49.56-1.31,1.19-2.6,1.71-3.92a1.28,1.28,0,0,1,1.44-1c1.12.07,2.25,0,3.6,0l-13.63,31.24c-3.28-7.43-6.49-14.71-9.73-22l-9.74,22L255,86.38c1.55,0,2.92,0,4.29,0,.21,0,.48.35.58.59,1.95,4.48,3.86,9,5.81,13.45.94,2.17,1.95,4.31,3,6.7L278.37,85C281.65,92.37,284.81,99.53,288.08,106.92Z"/>
  <path d="M387.06,105.53h-7.82v-4.39h13a15,15,0,0,1-.67,6c-1.62,4.54-4.58,7.87-9.24,9.36a19.2,19.2,0,0,1-14.87-.94,15.42,15.42,0,0,1-8.54-11.32,15.91,15.91,0,0,1,13.52-18.6,19.37,19.37,0,0,1,12.17,1.93,46.49,46.49,0,0,1,4.63,3.19l-2.8,3.81a16.39,16.39,0,0,0-7.71-4.36c-6.28-1.45-13.14,1.47-15,8.29a10.54,10.54,0,0,0,2.5,10.26,11.47,11.47,0,0,0,6.68,3.86c4.29.81,8.39.35,11.72-2.72,1.18-1.1,1.86-2.73,2.78-4.12Z"/>
  <path d="M237.53,85.38c6.85.28,11.95,3.36,15.16,9.44a12.3,12.3,0,0,1,1.32,5.23,17.36,17.36,0,0,1-1.17,7.51,15.79,15.79,0,0,1-6.78,7.62,17.53,17.53,0,0,1-19.78-1.65,15.15,15.15,0,0,1-5.34-8.47c-1-4.65-.38-9,2.63-13a17.16,17.16,0,0,1,10.28-6.4A30,30,0,0,1,237.53,85.38Zm12,15.87a11.75,11.75,0,0,0-4.06-8.33,12.35,12.35,0,0,0-10.95-2.78A11.86,11.86,0,0,0,225,101a10.18,10.18,0,0,0,3.1,8,12.83,12.83,0,0,0,10.94,3.83A12.1,12.1,0,0,0,249.54,101.25Z"/>
  <path d="M319.18,116.73V86.38c1.1,0,2.21,0,3.32,0a82.8,82.8,0,0,1,8.35.28A14.08,14.08,0,0,1,342,94.08a14.23,14.23,0,0,1,.23,14.13A13.86,13.86,0,0,1,331,116C327.1,116.42,323.2,116.5,319.18,116.73Zm4.43-4.55c2.29-.12,4.49-.11,6.66-.38a10.16,10.16,0,0,0,5.66-2.62,9.92,9.92,0,0,0,3.28-10,10.24,10.24,0,0,0-4-6.28c-3.51-2.57-7.57-2.3-11.62-2.34Z"/>
  <path d="M158.83,167.41h-2.21V29h2.21Z" fill="#fbd133"/>
  <path d="M427.94,116.47h-4.66L437.68,85c4.89,10.62,9.67,21,14.51,31.48h-4.66L444,108.81c-4,0-8.11,0-12.19,0-.31,0-.72.55-.9.93C429.9,112,428.93,114.24,427.94,116.47ZM442.28,105l-4.62-10-4.56,10Z"/>
  <path d="M187.25,97.79h12.67v4.4H187.23v14.24H183v-30H200v4H187.25Z"/>
  <path d="M405.85,90.65V86.46h18.57v4.07h-7.1v25.9h-4.2V90.65Z"/>
  <path d="M219.37,112v4.42H205.21v-30h4.1V112Z"/>
  <path d="M353.18,116.48h-4.06v-30h4.06Z"/>
  <path d="M401.54,116.49h-4.07v-30h4.07Z"/>
</svg>
