<svg id="Layer_1" data-name="Layer 1" xmlns="http://www.w3.org/2000/svg" viewBox="0 0 440.11 140.63">
  <g>
    <path d="M470.06,116.51v51.16H29.94V72.13H42.85v61.38H66.38V72.16h4.88v83c.38,0,.64.06.91.06,5.45,0,10.9,0,16.35-.1a47.82,47.82,0,0,0,34.06-14.5c11.58-11.65,15.32-29.36,8.74-44.3-7.77-17.67-22.09-26.36-40.91-27.8-7.55-.57-15.18-.11-22.77-.13H66.37c0-6.77-.14-13.39.06-20a35.18,35.18,0,0,1,1.43-8.82c1.9-6.38,5.9-10.81,12.69-12.14L79.7,27H470.06v85H460.2V86.45h-4.09v30.06ZM98.62,43.33a12.48,12.48,0,1,0-12.5,12.42A12.43,12.43,0,0,0,98.62,43.33Zm189.46,63.59c-3.27-7.39-6.43-14.55-9.71-21.94l-9.66,22.17c-1.09-2.39-2.1-4.53-3-6.7-1.95-4.47-3.86-9-5.81-13.45-.1-.24-.37-.58-.58-.59-1.37,0-2.74,0-4.29,0l13.65,31.24,9.74-22c3.24,7.32,6.45,14.6,9.73,22l13.63-31.24c-1.35,0-2.48.05-3.6,0a1.28,1.28,0,0,0-1.44,1c-.52,1.32-1.15,2.61-1.71,3.92-1.23,2.83-2.42,5.67-3.66,8.49C290.31,102.08,289.23,104.39,288.08,106.92Zm99-1.39.3.27c-.92,1.39-1.6,3-2.78,4.12-3.33,3.07-7.43,3.53-11.72,2.72a11.47,11.47,0,0,1-6.68-3.86,10.54,10.54,0,0,1-2.5-10.26c1.9-6.82,8.76-9.74,15-8.29a16.39,16.39,0,0,1,7.71,4.36l2.8-3.81a46.49,46.49,0,0,0-4.63-3.19,19.37,19.37,0,0,0-12.17-1.93,15.91,15.91,0,0,0-13.52,18.6,15.42,15.42,0,0,0,8.54,11.32,19.2,19.2,0,0,0,14.87.94c4.66-1.49,7.62-4.82,9.24-9.36a15,15,0,0,0,.67-6h-13v4.39ZM237.53,85.38a30,30,0,0,0-3.68.33,17.16,17.16,0,0,0-10.28,6.4c-3,3.91-3.62,8.3-2.63,13a15.15,15.15,0,0,0,5.34,8.47,17.53,17.53,0,0,0,19.78,1.65,15.79,15.79,0,0,0,6.78-7.62,17.36,17.36,0,0,0,1.17-7.51,12.3,12.3,0,0,0-1.32-5.23C249.48,88.74,244.38,85.66,237.53,85.38Zm81.65,31.35c4-.23,7.92-.31,11.79-.72a13.86,13.86,0,0,0,11.3-7.8A14.23,14.23,0,0,0,342,94.08a14.08,14.08,0,0,0-11.19-7.42,82.8,82.8,0,0,0-8.35-.28c-1.11,0-2.22,0-3.32,0ZM158.83,167.41V29h-2.21V167.41Zm269.11-50.94c1-2.23,2-4.47,3-6.69.18-.38.59-.93.9-.93,4.08-.07,8.16,0,12.19,0l3.52,7.65h4.66C447.35,106,442.57,95.6,437.68,85l-14.4,31.49ZM187.25,97.79V90.51H200v-4H183v30h4.19V102.19h12.69v-4.4Zm218.6-7.14h7.27v25.78h4.2V90.53h7.1V86.46H405.85ZM219.37,112H209.31V86.45h-4.1v30h14.16Zm133.81,4.45v-30h-4.06v30Zm48.36,0v-30h-4.07v30Z" transform="translate(-29.94 -27.04)" fill="#fefefe"/>
    <path d="M79.7,30.78l.85.35c-6.79,1.33-10.79,5.75-12.69,12.14a35.11,35.11,0,0,0-1.43,8.82c-.2,6.61-.06,13.23-.06,20h1.27c7.59,0,15.22-.45,22.77.13,18.82,1.44,33.14,10.13,40.91,27.8,6.58,14.94,2.84,32.64-8.74,44.3a47.82,47.82,0,0,1-34.06,14.5c-5.45.12-10.9.07-16.35.09-.27,0-.53,0-.91,0v-83H66.38v61.36H42.85V75.87H29.94V72.13H42.83V70.7c0-5.14,0-10.28,0-15.41a9.8,9.8,0,0,1,.36-2.75c3.33-11.4,11-18.14,22.44-20.8,1.7-.39,3.45-.64,5.17-1Zm7.78,55.81v57.65a4.06,4.06,0,0,0,.42,0l1.4-.08c8.93-.62,16.51-4.05,22.49-10.8A26.65,26.65,0,0,0,115,102.15C108.9,91.75,99.34,87.2,87.48,86.59Z" transform="translate(-29.94 -27.04)" fill="#232020"/>
    <path d="M70.82,27c-1.72.32-3.47.57-5.17,1C54.21,30.66,46.54,37.4,43.21,48.8a9.8,9.8,0,0,0-.36,2.75c0,5.14,0,10.27,0,15.41v1.43H29.94V27Z" transform="translate(-29.94 -27.04)" fill="#fdfdfd"/>
    <path d="M470.06,116.51H456.11V86.45h4.09v25.63h9.86Z" transform="translate(-29.94 -27.04)" fill="#221f1f"/>
    <path d="M98.62,43.33A12.48,12.48,0,1,1,86.15,30.78,12.44,12.44,0,0,1,98.62,43.33Z" transform="translate(-29.94 -27.04)" fill="#fbd134"/>
    <path d="M288.08,106.92c1.15-2.53,2.23-4.84,3.25-7.17,1.24-2.82,2.43-5.66,3.66-8.49.56-1.31,1.19-2.6,1.71-3.92a1.28,1.28,0,0,1,1.44-1c1.12.07,2.25,0,3.6,0l-13.63,31.24c-3.28-7.43-6.49-14.71-9.73-22l-9.74,22L255,86.38c1.55,0,2.92,0,4.29,0,.21,0,.48.35.58.59,1.95,4.48,3.86,9,5.81,13.45.94,2.17,1.95,4.31,3,6.7L278.37,85C281.65,92.37,284.81,99.53,288.08,106.92Z" transform="translate(-29.94 -27.04)" fill="#221f1f"/>
    <path d="M387.06,105.53h-7.82v-4.39h13a15,15,0,0,1-.67,6c-1.62,4.54-4.58,7.87-9.24,9.36a19.2,19.2,0,0,1-14.87-.94,15.42,15.42,0,0,1-8.54-11.32,15.91,15.91,0,0,1,13.52-18.6,19.37,19.37,0,0,1,12.17,1.93,46.49,46.49,0,0,1,4.63,3.19l-2.8,3.81a16.39,16.39,0,0,0-7.71-4.36c-6.28-1.45-13.14,1.47-15,8.29a10.54,10.54,0,0,0,2.5,10.26,11.47,11.47,0,0,0,6.68,3.86c4.29.81,8.39.35,11.72-2.72,1.18-1.1,1.86-2.73,2.78-4.12Z" transform="translate(-29.94 -27.04)" fill="#221f1f"/>
    <path d="M237.53,85.38c6.85.28,11.95,3.36,15.16,9.44a12.3,12.3,0,0,1,1.32,5.23,17.36,17.36,0,0,1-1.17,7.51,15.79,15.79,0,0,1-6.78,7.62,17.53,17.53,0,0,1-19.78-1.65,15.15,15.15,0,0,1-5.34-8.47c-1-4.65-.38-9,2.63-13a17.16,17.16,0,0,1,10.28-6.4A30,30,0,0,1,237.53,85.38Zm12,15.87a11.75,11.75,0,0,0-4.06-8.33,12.35,12.35,0,0,0-10.95-2.78A11.86,11.86,0,0,0,225,101a10.18,10.18,0,0,0,3.1,8,12.83,12.83,0,0,0,10.94,3.83A12.1,12.1,0,0,0,249.54,101.25Z" transform="translate(-29.94 -27.04)" fill="#221f1f"/>
    <path d="M319.18,116.73V86.38c1.1,0,2.21,0,3.32,0a82.8,82.8,0,0,1,8.35.28A14.08,14.08,0,0,1,342,94.08a14.23,14.23,0,0,1,.23,14.13A13.86,13.86,0,0,1,331,116C327.1,116.42,323.2,116.5,319.18,116.73Zm4.43-4.55c2.29-.12,4.49-.11,6.66-.38a10.16,10.16,0,0,0,5.66-2.62,9.92,9.92,0,0,0,3.28-10,10.24,10.24,0,0,0-4-6.28c-3.51-2.57-7.57-2.3-11.62-2.34Z" transform="translate(-29.94 -27.04)" fill="#221f1f"/>
    <path d="M158.83,167.41h-2.21V29h2.21Z" transform="translate(-29.94 -27.04)" fill="#fbd133"/>
    <path d="M427.94,116.47h-4.66L437.68,85c4.89,10.62,9.67,21,14.51,31.48h-4.66L444,108.81c-4,0-8.11,0-12.19,0-.31,0-.72.55-.9.93C429.9,112,428.93,114.24,427.94,116.47ZM442.28,105l-4.62-10-4.56,10Z" transform="translate(-29.94 -27.04)" fill="#221f1f"/>
    <path d="M187.25,97.79h12.67v4.4H187.23v14.24H183v-30H200v4H187.25Z" transform="translate(-29.94 -27.04)" fill="#221f1f"/>
    <path d="M405.85,90.65V86.46h18.57v4.07h-7.1v25.9h-4.2V90.65Z" transform="translate(-29.94 -27.04)" fill="#221f1f"/>
    <path d="M219.37,112v4.42H205.21v-30h4.1V112Z" transform="translate(-29.94 -27.04)" fill="#221f1f"/>
    <path d="M353.18,116.48h-4.06v-30h4.06Z" transform="translate(-29.94 -27.04)" fill="#221f1f"/>
    <path d="M401.54,116.49h-4.07v-30h4.07Z" transform="translate(-29.94 -27.04)" fill="#221f1f"/>
    <path d="M87.48,82.85C99.34,83.46,108.9,88,115,98.42a26.64,26.64,0,0,1-3.21,31.23c-6,6.75-13.56,10.18-22.49,10.8l-1.4.08a2.39,2.39,0,0,1-.42,0Z" transform="translate(-29.94 -27.04)" fill="#fefefe"/>
    <path d="M249.54,101.25a12.1,12.1,0,0,1-10.46,11.56A12.83,12.83,0,0,1,228.14,109a10.18,10.18,0,0,1-3.1-8,11.86,11.86,0,0,1,9.49-10.81,12.35,12.35,0,0,1,10.95,2.78A11.75,11.75,0,0,1,249.54,101.25Z" transform="translate(-29.94 -27.04)" fill="#fefefe"/>
    <path d="M323.61,112.18V90.58c4.05,0,8.11-.23,11.62,2.34a10.24,10.24,0,0,1,4,6.28,9.92,9.92,0,0,1-3.28,10,10.16,10.16,0,0,1-5.66,2.62C328.1,112.07,325.9,112.06,323.61,112.18Z" transform="translate(-29.94 -27.04)" fill="#fefefe"/>
    <path d="M442.28,105H433.1l4.56-10Z" transform="translate(-29.94 -27.04)" fill="#fefefe"/>
  </g>
</svg>
